<svg width="259" height="231" viewBox="0 0 259 231" fill="none" xmlns="http://www.w3.org/2000/svg">
<path d="M87.6786 168.92C87.6786 170.707 87.3653 172.24 86.7386 173.52C86.1119 174.8 85.2053 175.78 84.0186 176.46C82.8319 177.14 81.4053 177.48 79.7386 177.48C78.4986 177.48 77.4319 177.32 76.5386 177C75.6586 176.667 74.9586 176.307 74.4386 175.92C73.9319 175.533 73.6186 175.247 73.4986 175.06L75.4386 170.74C75.5986 170.967 75.8319 171.233 76.1386 171.54C76.4453 171.833 76.8386 172.093 77.3186 172.32C77.7986 172.533 78.3719 172.64 79.0386 172.64C79.8119 172.64 80.4653 172.473 80.9986 172.14C81.5453 171.807 81.9586 171.3 82.2386 170.62C82.5319 169.927 82.6786 169.067 82.6786 168.04V150.6H87.6786V168.92ZM92.2723 150.6H97.2723V177H92.2723V150.6ZM115.846 177H110.146L100.646 150.6H106.266L113.006 170.72L119.746 150.6H125.366L115.846 177ZM128.757 150.6H133.757V177H128.757V150.6ZM147.95 163.48L158.27 177H152.29L143.51 165.2V177H138.51V150.6H143.51V161.9L151.65 150.6H157.31L147.95 163.48Z" fill="#397A59"/>
<path d="M170.185 151H175.885L185.385 177.4H179.765L173.025 157.28L166.285 177.4H160.665L170.185 151Z" fill="#397A59"/>
<path d="M171.223 56.5389C174.149 53.2765 173.348 47.7765 169.647 45.7133C168.64 45.1521 167.513 44.9146 166.391 45.0273C165.27 45.1401 164.198 45.5987 163.297 46.3517L128.666 75.3124H154.387L171.223 56.5389ZM170.281 81.3751H88.7188C87.2166 81.3751 86 82.7316 86 84.4064V90.4691C86 92.1439 87.2166 93.5005 88.7188 93.5005H91.4375C91.4375 108.843 99.9676 121.94 112.02 127.285C109.852 130.481 108.329 134.257 107.781 138.404C107.532 140.284 108.807 142 110.511 142H148.489C150.193 142 151.468 140.284 151.219 138.404C150.672 134.257 149.15 130.481 146.98 127.285C159.032 121.94 167.562 108.843 167.562 93.5005H170.281C171.783 93.5005 173 92.1439 173 90.4691V84.4064C173 82.7316 171.783 81.3751 170.281 81.3751Z" fill="#397A59"/>
<path d="M106.493 45C107.156 45.7696 107.593 46.6977 107.844 47.7C108.251 49.328 108.225 51.1521 108.088 53.0125C107.814 56.7332 107.13 60.6493 107.928 63.0795C108.676 65.3606 109.877 66.7154 111.208 67.3815C111.781 67.6681 112.384 67.8267 112.994 67.8677C114.452 63.2013 114.141 57.2459 111.742 53.2208C114.918 56.6792 116.419 61.9013 115.449 67.3747L114.873 67.6278C115.053 67.5691 115.23 67.5011 115.404 67.424C118.149 66.2144 120.395 62.6737 119.461 57.4825C119.031 55.0975 117.558 51.7348 115.092 49.1296C112.959 46.8759 110.111 45.1709 106.493 45.0001L106.493 45ZM125.147 58.1592C125.092 59.0267 124.842 59.8461 124.453 60.5903C123.773 61.8909 122.716 63.0106 121.571 64.0743C119.281 66.2017 116.64 68.1724 115.77 70.1844C114.945 72.0904 114.923 73.7157 115.363 75.0085C115.551 75.5618 115.832 76.0717 116.192 76.5119C119.721 74.5913 122.875 70.7108 123.669 66.6153C123.674 70.8919 121.657 75.1251 117.978 77.8653C120.33 78.9082 123.646 78.2263 125.974 74.4417C127.053 72.6882 128.047 69.6163 127.998 66.3486C127.957 63.5747 127.193 60.6679 125.147 58.1594L125.147 58.1592ZM97.2366 63.4269C96.6136 66.7163 97.2831 69.6527 98.5175 72.0778C99.9717 74.9343 102.241 77.052 103.978 77.9818C107.727 79.9885 110.909 78.7682 112.469 76.5815C108.029 76.2158 104.343 73.6509 102.389 69.9448C104.953 73.0585 109.461 74.6977 113.397 74.435C113.507 73.8574 113.518 73.2624 113.427 72.6806C113.216 71.3208 112.451 69.924 110.863 68.7237C109.188 67.4568 105.999 67.1922 103.042 66.5996C101.563 66.3035 100.135 65.912 98.9508 65.1567C98.2727 64.7244 97.6821 64.1486 97.2367 63.427L97.2366 63.4269Z" fill="#397A59"/>
</svg>
